<svg width="47" height="47" viewBox="0 0 47 47" fill="none" xmlns="http://www.w3.org/2000/svg">
<path d="M34.0093 3.8999H14.5093C9.1245 3.8999 4.75928 8.26513 4.75928 13.6499V33.1499C4.75928 38.5347 9.1245 42.8999 14.5093 42.8999H34.0093C39.3941 42.8999 43.7593 38.5347 43.7593 33.1499V13.6499C43.7593 8.26513 39.3941 3.8999 34.0093 3.8999Z" fill="#FF6EF8"/>
<path d="M33.3 10.8H28.391C26.221 10.8 24.1399 11.6534 22.6055 13.1725C21.0712 14.6915 20.2091 16.7518 20.2091 18.9V23.76H15.3V30.2401H20.2091V43.2001H26.7546V30.2401H31.6637L33.3 23.76H26.7546V18.9C26.7546 18.4704 26.927 18.0583 27.2339 17.7545C27.5408 17.4507 27.957 17.28 28.391 17.28H33.3V10.8Z" fill="black"/>
</svg>
