<svg width="47" height="47" viewBox="0 0 47 47" fill="none" xmlns="http://www.w3.org/2000/svg">
<path d="M33.1499 3.90002H13.6499C8.26513 3.90002 3.8999 8.26525 3.8999 13.65V33.15C3.8999 38.5348 8.26513 42.9 13.6499 42.9H33.1499C38.5347 42.9 42.8999 38.5348 42.8999 33.15V13.65C42.8999 8.26525 38.5347 3.90002 33.1499 3.90002Z" fill="#FE6DF7"/>
<path d="M31.2 23.7559C31.4406 25.3787 31.1634 27.0362 30.4078 28.4924C29.6522 29.9487 28.4566 31.1296 26.9911 31.8672C25.5257 32.6048 23.8649 32.8616 22.2451 32.6009C20.6254 32.3403 19.129 31.5755 17.9689 30.4154C16.8088 29.2553 16.044 27.759 15.7834 26.1392C15.5228 24.5194 15.7795 22.8586 16.5171 21.3932C17.2547 19.9277 18.4356 18.7321 19.8919 17.9765C21.3481 17.2209 23.0056 16.9437 24.6285 17.1844C26.2839 17.4298 27.8164 18.2012 28.9998 19.3846C30.1831 20.5679 30.9545 22.1005 31.2 23.7559Z" stroke="black" stroke-width="2.7" stroke-linecap="round" stroke-linejoin="round"/>
<path d="M34.125 12.675H34.1452" stroke="black" stroke-width="3.6" stroke-linecap="round" stroke-linejoin="round"/>
</svg>
