<svg width="330" height="45" viewBox="0 0 330 45" fill="none" xmlns="http://www.w3.org/2000/svg">
<g clip-path="url(#clip0_38_605)">
<path d="M31.2715 5C21.1705 5 13 13.1705 13 23.2715C13 27.659 14.5405 31.676 17.1145 34.835C17.056 33.4895 17.29 32.1245 17.8165 30.818C21.346 32.456 23.491 36.0245 23.4325 39.788C23.4715 39.788 23.5105 39.827 23.5495 39.8465C25.1485 38.9495 26.338 37.3505 26.689 35.4785C28.1125 35.9855 29.653 36.2585 31.252 36.2585C32.851 36.2585 34.3915 35.9855 35.815 35.4785C36.166 37.331 37.3165 38.891 38.896 39.8075C38.8375 35.9855 41.041 32.378 44.668 30.7595C45.214 32.0855 45.448 33.47 45.409 34.835C47.983 31.6955 49.5235 27.659 49.5235 23.2715C49.5235 13.1705 41.353 5 31.2715 5ZM43.81 28.0295C43.3615 28.4 42.874 28.712 42.3475 28.9655C42.25 29.1215 42.1525 29.2775 42.055 29.4335C42.055 29.4335 42.055 29.4335 42.055 29.453C41.86 29.765 41.6455 30.0575 41.431 30.3305C41.314 30.467 41.197 30.623 41.08 30.7595C40.963 30.896 40.846 31.0325 40.7095 31.169C40.5925 31.3055 40.456 31.442 40.339 31.5785C40.2025 31.715 40.0855 31.832 39.949 31.9685C39.8125 32.0855 39.676 32.222 39.5395 32.339C39.2665 32.573 38.974 32.807 38.662 33.0215C38.5645 33.08 38.4865 33.1385 38.389 33.197C38.2915 33.275 38.1745 33.3335 38.0575 33.4115C37.9405 33.4895 37.8235 33.548 37.7065 33.626C37.5505 33.7235 37.375 33.8015 37.219 33.899C37.063 33.9965 36.8875 34.0745 36.712 34.1525C36.556 34.2305 36.4 34.289 36.244 34.367C36.205 34.367 36.166 34.406 36.127 34.4255C35.9905 34.484 35.854 34.5425 35.698 34.601C35.698 34.601 35.698 34.601 35.6785 34.601C35.5225 34.6595 35.3665 34.718 35.23 34.757C35.2105 34.757 35.191 34.757 35.1715 34.7765C34.996 34.835 34.8205 34.874 34.6645 34.9325C34.5085 34.9715 34.3525 35.0105 34.177 35.0495C34.138 35.0495 34.0795 35.069 34.0405 35.0885C33.8845 35.1275 33.7285 35.147 33.553 35.186C33.4555 35.186 33.3775 35.225 33.28 35.225C33.124 35.2445 32.968 35.2835 32.7925 35.2835C32.578 35.303 32.344 35.3225 32.11 35.342C31.9735 35.342 31.837 35.342 31.7005 35.3615C31.5445 35.3615 31.408 35.3615 31.252 35.3615C31.096 35.3615 30.9595 35.3615 30.8035 35.3615C30.667 35.3615 30.5305 35.3615 30.394 35.3615C30.1795 35.3615 29.965 35.3225 29.7505 35.303C29.575 35.303 29.3995 35.264 29.224 35.225C29.1265 35.225 29.0485 35.186 28.951 35.186C28.7755 35.147 28.6195 35.1275 28.444 35.0885C28.405 35.0885 28.3855 35.0885 28.3465 35.069C28.171 35.03 28.015 34.991 27.8395 34.952C27.664 34.913 27.4885 34.8545 27.3325 34.796C27.313 34.796 27.2935 34.796 27.274 34.7765C27.118 34.7375 26.962 34.679 26.8255 34.6205C26.8255 34.6205 26.8255 34.6205 26.806 34.6205C26.6695 34.562 26.533 34.5035 26.377 34.445C26.338 34.445 26.2795 34.406 26.2405 34.3865C26.0845 34.328 25.9285 34.25 25.792 34.1915C25.792 34.1915 25.792 34.1915 25.753 34.1915C25.597 34.1135 25.441 34.0355 25.285 33.9575C25.129 33.8795 24.9535 33.782 24.7975 33.6845C24.6805 33.6065 24.544 33.5285 24.427 33.4505C24.3295 33.392 24.2515 33.3335 24.154 33.275C24.0565 33.2165 23.959 33.158 23.8615 33.08C23.7055 32.9825 23.569 32.8655 23.413 32.7485C23.257 32.6315 23.1205 32.5145 22.984 32.3975C22.867 32.3 22.75 32.183 22.633 32.0855C22.5355 32.0075 22.4575 31.91 22.36 31.832C22.3015 31.7735 22.243 31.715 22.1845 31.6565C22.087 31.559 21.97 31.442 21.8725 31.3445C21.814 31.286 21.775 31.2275 21.7165 31.169C21.6385 31.0715 21.5605 30.9935 21.4825 30.896C21.463 30.8765 21.4435 30.857 21.424 30.8375C21.346 30.74 21.2485 30.6425 21.1705 30.5255C21.0145 30.311 20.839 30.0965 20.7025 29.882C20.644 29.804 20.5855 29.7065 20.527 29.6285C20.41 29.4335 20.2735 29.258 20.176 29.063C19.6495 28.8095 19.162 28.4975 18.7135 28.127C17.0365 26.762 15.964 24.656 15.964 22.3355C15.964 19.781 17.251 17.4995 19.2205 16.154C19.6885 15.8225 20.1955 15.5495 20.7415 15.3545C21.58 15.023 22.4965 14.8475 23.452 14.8475C24.4855 14.8475 25.48 15.062 26.3965 15.452C28.9315 14.6525 30.8815 12.5075 31.4275 9.8555C31.954 12.449 33.826 14.555 36.283 15.3935C37.141 15.0425 38.0965 14.8475 39.091 14.8475C40.0855 14.8475 40.963 15.023 41.8015 15.3545C42.3475 15.569 42.8545 15.842 43.3225 16.154C45.292 17.4995 46.579 19.7615 46.579 22.3355C46.579 24.6755 45.5065 26.762 43.8295 28.127L43.81 28.0295Z" fill="white"/>
<path d="M24.5245 20.4635C23.374 20.4635 22.438 21.3995 22.438 22.55C22.438 23.7005 23.374 24.6365 24.5245 24.6365C25.675 24.6365 26.611 23.7005 26.611 22.55C26.611 21.3995 25.675 20.4635 24.5245 20.4635Z" fill="white"/>
<path d="M37.999 20.4635C36.8485 20.4635 35.9125 21.3995 35.9125 22.55C35.9125 23.7005 36.8485 24.6365 37.999 24.6365C39.1495 24.6365 40.0855 23.7005 40.0855 22.55C40.0855 21.3995 39.1495 20.4635 37.999 20.4635Z" fill="white"/>
<path d="M43.9075 17.324C43.459 16.8755 42.9325 16.4855 42.367 16.193C41.392 15.6665 40.2805 15.3545 39.091 15.3545C38.4865 15.3545 37.882 15.4325 37.3165 15.5885C34.3915 16.3685 32.2465 19.001 32.188 22.1405H30.3355C30.277 19.04 28.171 16.427 25.324 15.6275C24.7194 15.452 24.0955 15.374 23.452 15.374C22.2625 15.374 21.151 15.686 20.1565 16.2125C19.591 16.5245 19.0645 16.9145 18.616 17.3435C17.3485 18.5915 16.549 20.3465 16.549 22.2575C16.549 23.9735 17.173 25.553 18.226 26.762C18.6355 27.2495 19.123 27.6785 19.669 28.0295C20.761 28.751 22.048 29.1605 23.452 29.1605C27.001 29.1605 29.926 26.4695 30.2964 23.0375H32.227C32.5975 26.489 35.542 29.1605 39.0715 29.1605C40.456 29.1605 41.7625 28.751 42.8545 28.0295C43.4005 27.6785 43.888 27.2495 44.2974 26.762C45.3505 25.553 45.9745 23.9735 45.9745 22.2575C45.9745 20.327 45.175 18.5915 43.9075 17.3435V17.324ZM23.452 28.2635C23.3545 28.2635 23.2374 28.2635 23.1399 28.2635C23.0424 28.2635 22.9254 28.2635 22.828 28.244C22.7305 28.244 22.6329 28.2245 22.5354 28.205C22.4379 28.205 22.3404 28.166 22.2429 28.1465C22.1844 28.1465 22.126 28.127 22.0675 28.1075C22.009 28.1075 21.9504 28.0685 21.8919 28.0685C21.8919 28.0685 21.892 28.0685 21.8725 28.0685C21.8335 28.0685 21.775 28.049 21.7359 28.0295C21.6969 28.0295 21.6384 27.9905 21.5994 27.9905C21.5994 27.9905 21.5799 27.9905 21.5604 27.9905C21.4824 27.971 21.4045 27.932 21.346 27.9125C21.307 27.9125 21.2485 27.8735 21.2095 27.854C21.1705 27.854 21.1315 27.815 21.0925 27.7955C21.0535 27.7955 21.0145 27.7565 20.9755 27.737C20.8975 27.698 20.8 27.659 20.722 27.62C20.6439 27.581 20.5854 27.542 20.5074 27.503C20.5074 27.503 20.4879 27.503 20.4684 27.4835C20.4099 27.4445 20.332 27.4055 20.2735 27.3665C20.176 27.308 20.0589 27.23 19.9615 27.152C19.903 27.113 19.8445 27.0545 19.786 27.0155C19.7665 27.0155 19.747 26.9765 19.7275 26.957C19.6885 26.9375 19.6495 26.8985 19.63 26.8595C19.591 26.84 19.5519 26.801 19.5324 26.762C19.4739 26.7035 19.4155 26.6645 19.357 26.606C19.2595 26.5085 19.1814 26.4305 19.084 26.333C18.9864 26.2355 18.889 26.1185 18.811 26.0015C18.811 26.0015 18.811 26.0015 18.811 25.982C18.811 25.982 18.7915 25.943 18.772 25.943C18.733 25.904 18.694 25.8455 18.6745 25.8065C18.6745 25.8065 18.655 25.7675 18.6355 25.748C18.577 25.6505 18.5185 25.5725 18.46 25.475C18.4015 25.397 18.3625 25.319 18.3235 25.2215C18.304 25.1825 18.2845 25.163 18.265 25.124C18.2455 25.0655 18.2065 25.0265 18.187 24.968C18.1675 24.929 18.148 24.89 18.1285 24.8315C18.109 24.773 18.0895 24.734 18.0699 24.695C18.0699 24.695 18.0699 24.656 18.0504 24.6365C18.0309 24.5975 18.0115 24.539 17.992 24.5C17.992 24.461 17.9725 24.4415 17.953 24.422C17.9335 24.3635 17.914 24.305 17.8945 24.2465C17.8945 24.227 17.8945 24.188 17.875 24.1685C17.875 24.1685 17.875 24.1685 17.875 24.149C17.836 24.0515 17.8165 23.9735 17.797 23.876C17.797 23.8565 17.797 23.837 17.7775 23.8175C17.7775 23.798 17.7775 23.7785 17.7775 23.7395C17.758 23.6615 17.7385 23.5835 17.719 23.525C17.719 23.5055 17.719 23.4665 17.719 23.447C17.719 23.369 17.68 23.291 17.68 23.213C17.68 23.1155 17.6605 23.0375 17.641 22.94C17.641 22.94 17.641 22.901 17.641 22.8815C17.641 22.784 17.6409 22.706 17.6214 22.6085C17.6214 22.511 17.6214 22.394 17.6214 22.2965C17.6214 22.199 17.6214 22.1015 17.6214 22.004C17.6214 21.9845 17.6214 21.965 17.6214 21.9455C17.6214 21.887 17.6214 21.8285 17.6214 21.77C17.6214 21.77 17.6214 21.6725 17.6214 21.6335C17.6214 21.6335 17.6214 21.614 17.6214 21.5945C17.6214 21.5555 17.6214 21.497 17.6214 21.458C17.6214 21.419 17.6214 21.3995 17.6214 21.3605C17.6214 21.2825 17.641 21.224 17.6605 21.146C17.6605 21.1265 17.6605 21.107 17.6605 21.0875C17.6605 20.99 17.6995 20.912 17.719 20.8145C17.7385 20.717 17.758 20.639 17.797 20.5415C17.8165 20.4635 17.8555 20.3855 17.875 20.3075C17.914 20.1905 17.953 20.0735 18.0115 19.9565C18.0115 19.9565 18.0504 19.8395 18.0894 19.8005C18.1089 19.742 18.1285 19.703 18.1675 19.6445C18.2065 19.5665 18.2455 19.469 18.304 19.391C18.3235 19.3325 18.3625 19.2935 18.4015 19.235C18.4405 19.157 18.4794 19.0985 18.5379 19.0205C18.5379 19.0205 18.5379 18.9815 18.5575 18.9815C18.5575 18.962 18.5964 18.9425 18.5964 18.923C18.6354 18.884 18.655 18.8255 18.694 18.7865C18.733 18.7475 18.772 18.689 18.7915 18.65C18.8305 18.611 18.85 18.5525 18.889 18.5135C18.928 18.4745 18.9669 18.416 19.0059 18.377C19.0645 18.3185 19.123 18.2405 19.1815 18.182C19.1815 18.182 19.201 18.1625 19.2205 18.143C19.2595 18.104 19.2985 18.065 19.3375 18.026C19.3765 17.987 19.4155 17.948 19.4545 17.909C19.4545 17.909 19.6495 17.7335 19.747 17.6555C19.8055 17.597 19.864 17.558 19.942 17.4995C20.0589 17.402 20.1955 17.324 20.332 17.2265C20.371 17.207 20.3905 17.1875 20.4295 17.168C20.449 17.168 20.488 17.129 20.527 17.1095C20.5465 17.1095 20.5855 17.0705 20.6049 17.0705C20.6439 17.051 20.7025 17.012 20.7415 16.9925C20.8 16.973 20.839 16.934 20.8975 16.9145C20.917 16.9145 20.9365 16.895 20.9755 16.8755C21.034 16.856 21.0729 16.817 21.1315 16.7975C21.1899 16.778 21.229 16.7585 21.2874 16.739C21.2874 16.739 21.3265 16.739 21.346 16.7195H21.3654C21.4239 16.7 21.5019 16.661 21.5604 16.6415C21.5994 16.6415 21.6579 16.6025 21.6969 16.6025C21.7359 16.6025 21.7945 16.5635 21.8335 16.5635C21.8725 16.5635 21.9115 16.544 21.9505 16.5245C21.9895 16.5245 22.0285 16.505 22.0675 16.4855C22.2429 16.4465 22.4184 16.4075 22.6134 16.388C22.7109 16.388 22.789 16.3685 22.8865 16.349C22.906 16.349 22.9254 16.349 22.9449 16.349C23.1399 16.3295 23.335 16.31 23.53 16.31C26.845 16.31 29.5359 19.001 29.5359 22.316C29.5359 25.631 26.845 28.322 23.53 28.322L23.452 28.2635ZM45.058 22.8425C45.058 22.8425 45.058 22.8425 45.058 22.862C45.058 22.9595 45.0385 23.057 45.019 23.1545C45.019 23.2325 44.9995 23.33 44.9799 23.408C44.9799 23.408 44.9799 23.447 44.9799 23.4665C44.9799 23.4665 44.9799 23.5055 44.9799 23.525C44.9799 23.5835 44.9604 23.642 44.941 23.7005C44.941 23.7395 44.941 23.759 44.9215 23.798C44.9215 23.798 44.8825 23.915 44.863 23.9735C44.863 24.032 44.8239 24.071 44.8045 24.1295C44.8045 24.1295 44.8045 24.1295 44.8045 24.149C44.7654 24.2465 44.7265 24.3635 44.6875 24.461C44.6875 24.461 44.6875 24.5 44.668 24.5195C44.6485 24.578 44.6095 24.656 44.5705 24.7145C44.551 24.773 44.5119 24.851 44.4729 24.9095C44.4535 24.9485 44.434 25.007 44.4145 25.046C44.395 25.1045 44.356 25.163 44.3169 25.2215C44.278 25.2995 44.2195 25.3775 44.1805 25.4555C44.1415 25.5335 44.083 25.6115 44.0245 25.67C44.005 25.709 43.966 25.7675 43.927 25.8065C43.7905 25.982 43.654 26.138 43.5175 26.3135C43.4395 26.411 43.342 26.489 43.2445 26.5865C43.2445 26.5865 43.147 26.7035 43.0885 26.7425C43.03 26.801 42.9715 26.8595 42.8935 26.8985C42.8545 26.9375 42.796 26.9765 42.757 26.996C42.718 27.035 42.6595 27.074 42.6205 27.113C42.523 27.191 42.4255 27.2495 42.3085 27.3275C42.25 27.3665 42.1915 27.4055 42.1329 27.4445C42.094 27.4445 42.0745 27.4835 42.055 27.4835C41.9965 27.5225 41.938 27.542 41.8795 27.581C41.8015 27.62 41.7235 27.659 41.626 27.698C41.5675 27.7175 41.509 27.7565 41.4505 27.776C41.431 27.776 41.4115 27.776 41.392 27.7955C41.3335 27.815 41.275 27.8345 41.2165 27.8735C41.2165 27.8735 41.0605 27.932 40.9825 27.9515C40.9435 27.9515 40.924 27.971 40.885 27.9905C40.8265 27.9905 40.768 28.0295 40.7095 28.0295C40.7095 28.0295 40.69 28.0295 40.6705 28.0295C40.5925 28.049 40.534 28.0685 40.456 28.088C40.3975 28.088 40.3585 28.1075 40.3 28.127C40.2025 28.1465 40.105 28.166 40.0075 28.1855C39.91 28.1855 39.8125 28.2245 39.715 28.2245C39.6175 28.2245 39.52 28.244 39.403 28.244C39.3055 28.244 39.1885 28.244 39.091 28.244C35.776 28.244 33.085 25.553 33.085 22.238C33.085 18.923 35.776 16.232 39.091 16.232C39.286 16.232 39.481 16.232 39.676 16.271C39.676 16.271 39.715 16.271 39.7345 16.271C39.832 16.271 39.91 16.2905 40.0075 16.31C40.183 16.3295 40.378 16.3685 40.5535 16.4075C40.5925 16.4075 40.6315 16.4075 40.6705 16.4465C40.7094 16.4465 40.7485 16.466 40.7875 16.4855C40.8265 16.4855 40.885 16.505 40.924 16.5245C40.963 16.5245 41.0215 16.544 41.0605 16.5635C41.1385 16.583 41.197 16.622 41.275 16.6415C41.3335 16.661 41.4115 16.7 41.47 16.7195C41.548 16.739 41.6065 16.778 41.6845 16.817C41.6845 16.817 41.7235 16.817 41.743 16.8365C41.8015 16.8755 41.86 16.895 41.9185 16.934C41.977 16.973 42.0355 16.9925 42.094 17.0315C42.1525 17.0705 42.2305 17.1095 42.289 17.1485C42.4255 17.246 42.562 17.324 42.6985 17.4215C42.7765 17.48 42.835 17.5385 42.913 17.5775C42.9715 17.6165 43.0105 17.675 43.069 17.714C43.108 17.753 43.1469 17.7725 43.186 17.8115C43.2055 17.8115 43.225 17.8505 43.2445 17.87C43.303 17.909 43.342 17.9675 43.381 18.0065C43.42 18.0455 43.459 18.0845 43.498 18.1235C43.537 18.182 43.5955 18.221 43.6345 18.2795C43.81 18.494 43.9855 18.7085 44.1415 18.9425C44.1805 18.9815 44.2 19.04 44.2195 19.079C44.2195 19.0985 44.239 19.118 44.2585 19.1375C44.2585 19.157 44.278 19.1765 44.2974 19.196C44.2974 19.196 44.2974 19.2155 44.2974 19.235C44.3559 19.3325 44.4144 19.43 44.4534 19.547C44.4729 19.586 44.4925 19.6445 44.512 19.6835C44.5315 19.7225 44.551 19.781 44.5705 19.82C44.5705 19.859 44.6094 19.8785 44.6094 19.9175C44.6094 19.9175 44.6094 19.937 44.6094 19.9565C44.6094 19.9955 44.6485 20.015 44.6485 20.054C44.6485 20.093 44.6875 20.1515 44.707 20.1905C44.746 20.2685 44.7654 20.3465 44.785 20.4245C44.8239 20.5805 44.8825 20.7365 44.902 20.8925C44.902 20.9315 44.9214 20.99 44.941 21.029C44.941 21.029 44.941 21.029 44.941 21.0485C44.941 21.107 44.9605 21.146 44.9605 21.2045V21.224C44.9605 21.224 44.9605 21.2435 44.9605 21.263C44.9605 21.263 44.9605 21.263 44.9605 21.2825C44.9605 21.3605 44.9799 21.4385 44.9799 21.497V21.5165C44.9799 21.536 44.9799 21.5555 44.9799 21.5945C44.9799 21.6725 44.9799 21.7505 44.9799 21.8285C44.9799 21.8285 44.9799 21.848 44.9799 21.8675C44.9799 21.965 44.9799 22.0625 44.9799 22.1795C44.9799 22.2965 44.9799 22.394 44.9799 22.4915C44.9799 22.589 44.9799 22.6865 44.9605 22.7645L45.058 22.8425Z" fill="white"/>
</g>
<path d="M84.8317 27.6851C84.4054 27.6851 83.921 27.3715 83.7079 26.862L81.8866 18.1218H84.4054V15.2606H75.9772V11.1649H71.2303V15.2606H62.8022V18.1218H65.3403L63.5191 26.862C63.3059 27.3715 62.8216 27.6851 62.3953 27.6851H61.5234L62.8409 32.4863H63.9647C65.7085 32.4863 66.7547 30.8989 67.3747 29.1156C67.6266 28.3905 69.5641 18.1218 69.5641 18.1218H71.211V33.6621H75.9579V18.1218H77.6241C77.6241 18.1218 79.5616 28.3905 79.8135 29.1156C80.4529 30.8793 81.4991 32.4863 83.2235 32.4863H84.3473L85.6648 27.6851H84.7929H84.8317Z" fill="white"/>
<path d="M117.973 27.6851C117.547 27.6851 117.062 27.3715 116.849 26.862L115.028 18.1218H117.547V15.2606H109.119V11.1649H104.372V15.2606H95.9435V18.1218H98.4817L96.6604 26.862C96.4473 27.3715 95.9629 27.6851 95.5367 27.6851H94.6648L95.9823 32.4863H97.1061C98.8498 32.4863 99.8961 30.8989 100.516 29.1156C100.768 28.3905 102.705 18.1218 102.705 18.1218H104.352V33.6621H109.099V18.1218H110.765C110.765 18.1218 112.703 28.3905 112.955 29.1156C113.594 30.8793 114.64 32.4863 116.365 32.4863H117.489L118.806 27.6851H117.934H117.973Z" fill="white"/>
<path d="M154.331 26.5974C154.04 26.5974 153.73 26.4015 153.594 26.1075L151.405 18.1316H153.439V15.2704H149.603V11.1747H145.728V15.2704H141.95V18.1316H144.101L141.911 28.4199C141.776 28.7335 141.446 28.9099 141.175 28.9099H140.594L141.466 31.771H142.221C143.384 31.771 144.081 30.8304 144.488 29.7721C144.566 29.5566 145.166 26.7934 145.728 23.991V33.6719H149.603V22.1489C150.223 24.5594 150.921 27.2245 151.017 27.4597C151.444 28.5179 152.141 29.4586 153.284 29.4586H154.04L154.912 26.5974H154.331Z" fill="white"/>
<path d="M141.039 26.9306L141.698 24.2066H141.136C140.865 24.2066 140.555 24.0302 140.419 23.7363L139.276 18.112H140.787V15.2508H137.048V11.1551H133.173V15.2508H129.298V18.112H131.313L129.124 27.3813C128.988 27.6949 128.659 27.8712 128.387 27.8712H127.806L128.678 30.7324H129.434C130.596 30.7324 131.294 29.7917 131.701 28.7335C131.797 28.4983 132.534 25.2648 133.173 22.4233V33.6523H137.048V20.6008C137.416 22.4821 137.862 24.7945 137.959 25.0297C138.366 26.0291 139.024 26.9306 140.129 26.9306H141.02H141.039Z" fill="white"/>
<path d="M188.789 18.5333V15.6722H182.648V14.4572H187.414V12.1055H173.832V14.4572H178.598V15.6722H170.868C170.868 13.4969 170.868 11.9684 170.868 11.9684H167.147V15.6722H164.764V18.5333H167.147V22.1C167.051 22.1391 166.954 22.1783 166.896 22.2175C166.024 22.6291 165.656 22.6487 165.268 22.6487H163.912L164.706 26.2153H166.14C166.489 26.2153 166.818 26.1565 167.128 26.0585V27.3519C167.128 27.6851 166.973 28.0182 166.702 28.2338C166.45 28.4297 166.14 28.5277 165.869 28.5277H164.9L166.372 32.8586H167.051C168.988 32.8586 169.938 32.1139 170.422 30.311C170.596 29.6643 170.713 27.1755 170.771 24.2556C171.526 23.8637 172.185 23.5305 172.185 23.5305V19.6895C172.185 19.6895 171.604 19.9639 170.848 20.3362C170.848 19.7287 170.848 19.1408 170.848 18.5529H178.579V20.2382H173.231V25.353V28.2926V32.8586H185.728C186.988 32.8586 188.014 31.82 188.014 30.5462V20.2382H182.648V18.5529H188.789V18.5333ZM176.118 28.273H177.862V25.3334H176.118V23.1582H178.579V29.8995H176.118V28.273ZM185.089 23.1582V25.3334H183.345V28.273H185.089V29.8995H182.628V23.1582H185.089Z" fill="white"/>
<path d="M217.01 30.6932C217.01 30.6932 217.184 30.6932 217.281 30.6932H217.61C218.676 30.6932 219.528 29.8309 219.528 28.7531V24.3046H199.03V30.6932H203.098H215.479H217.029H217.01ZM203.079 26.0487H207.225V26.7738H203.079V26.0487ZM211.294 26.0487H215.44V26.7738H211.294V26.0487ZM203.079 28.1848H207.225V28.9099H203.079V28.1848ZM211.294 28.9099V28.1848H215.44V28.9099H211.294Z" fill="white"/>
<path d="M216.39 18.8567H217.881C218.773 18.8567 219.509 18.1316 219.509 17.2105V16.5638H220.73V14.8001H219.509V13.9183V12.5073H211.294V11.4491H207.225V12.5073H199.01V13.9183H207.225V14.8001H197.789V16.5638H207.225V17.4457H199.01V18.8567H207.225V19.6601H199.01V21.0711H207.225V21.8354H197.789V23.5991H220.73V21.8354H211.294V21.0711H219.509V19.6601H211.294V18.8567H216.39ZM211.294 13.9379H215.44V14.8197H211.294V13.9379ZM211.294 16.5834H215.44V17.4653H211.294V16.5834Z" fill="white"/>
<path d="M220.73 31.2615H197.789V33.3779H220.73V31.2615Z" fill="white"/>
<path d="M242.943 28.6845V16.1229H250.5V12.6151H230.737V16.1229H238.293V28.6845H229.729V32.2119H251.488V28.6845H242.943Z" fill="white"/>
<path d="M270.098 11.5078H266.107C266.107 11.5078 263.123 17.7005 262.58 18.4255C262.27 18.8371 261.67 19.0526 261.282 19.0526H260.488L261.689 22.972H262.716C263.297 22.972 263.801 22.7368 264.266 22.3449V33.3192H268.063V15.7408C269.11 13.5851 270.117 11.5078 270.117 11.5078H270.098Z" fill="white"/>
<path d="M284.842 16.5246V13.6635H277.15C277.925 12.4681 278.545 11.5078 278.545 11.5078H274.322C274.322 11.5078 271.57 15.7408 271.028 16.4854C270.718 16.897 270.117 17.1125 269.73 17.1125H268.935L270.137 21.0319H271.164C271.784 21.0319 272.345 20.7576 272.81 20.3068V33.3192H276.608V29.2626H284.842V26.4015H276.608V22.874H284.842V20.0129H276.608V16.4854H284.842V16.5246Z" fill="white"/>
<path d="M301.631 19.9835H315.31V17.8866H316.821V16.0837V13.1442H307.715V11.4785H302.968V13.1442H293.862V15.4958V17.8866H295.373V19.9835H296.865L295.373 24.0596H299.035H302.949V26.0389H295.373V28.3905H302.949V30.409H293.842V33.3485H316.782V30.409H307.676V28.3905H315.252V26.0389H307.676V24.0596H315.252L313.896 20.8458H309.149L309.517 21.708H300.934L301.573 19.9835H301.631ZM312.094 17.6319H298.628V16.0837H312.094V17.6319Z" fill="white"/>
<defs>
<clipPath id="clip0_38_605">
<rect width="36.5235" height="34.827" fill="white" transform="translate(13 5)"/>
</clipPath>
</defs>
</svg>
