<svg width="47" height="47" viewBox="0 0 47 47" fill="none" xmlns="http://www.w3.org/2000/svg">
<path d="M42.1498 22.2306C42.1572 25.0537 41.4976 27.8385 40.2248 30.3584C38.7157 33.378 36.3957 35.9177 33.5247 37.6932C30.6536 39.4687 27.345 40.4099 23.9693 40.4112C21.1463 40.4185 18.3614 39.759 15.8415 38.4862L3.6499 42.55L7.71379 30.3584C6.441 27.8385 5.78143 25.0537 5.78879 22.2306C5.79009 18.855 6.73121 15.5463 8.50671 12.6753C10.2822 9.80424 12.822 7.48423 15.8415 5.97511C18.3614 4.70232 21.1463 4.04275 23.9693 4.05011H25.0388C29.4969 4.29606 33.7078 6.17779 36.865 9.33499C40.0222 12.4922 41.9039 16.703 42.1498 21.1612V22.2306Z" fill="#FE6EF8"/>
</svg>
