<svg width="25" height="24" viewBox="0 0 25 24" fill="none" xmlns="http://www.w3.org/2000/svg">
<path d="M14 13C14.5523 13 15 12.5523 15 12C15 11.4477 14.5523 11 14 11C13.4477 11 13 11.4477 13 12C13 12.5523 13.4477 13 14 13Z" stroke="white" stroke-width="2" stroke-linecap="round" stroke-linejoin="round"/>
<path d="M23 13C23.5523 13 24 12.5523 24 12C24 11.4477 23.5523 11 23 11C22.4477 11 22 11.4477 22 12C22 12.5523 22.4477 13 23 13Z" stroke="white" stroke-width="2" stroke-linecap="round" stroke-linejoin="round"/>
<path d="M5 13C5.55228 13 6 12.5523 6 12C6 11.4477 5.55228 11 5 11C4.44772 11 4 11.4477 4 12C4 12.5523 4.44772 13 5 13Z" stroke="white" stroke-width="2" stroke-linecap="round" stroke-linejoin="round"/>
</svg>
