<svg width="192" height="55" viewBox="0 0 192 55" fill="none" xmlns="http://www.w3.org/2000/svg">
<path d="M25.6458 6.35199C26.0438 4.72567 28.3562 4.72567 28.7542 6.35199L32.3161 20.91C32.4579 21.4896 32.9104 21.9421 33.49 22.0839L48.048 25.6458C49.6743 26.0438 49.6743 28.3562 48.048 28.7542L33.49 32.3161C32.9104 32.4579 32.4579 32.9104 32.3161 33.49L28.7542 48.048C28.3562 49.6743 26.0438 49.6743 25.6458 48.048L22.0839 33.49C21.9421 32.9104 21.4896 32.4579 20.91 32.3161L6.35199 28.7542C4.72567 28.3562 4.72567 26.0438 6.35199 25.6458L20.91 22.0839C21.4896 21.9421 21.9421 21.4896 22.0839 20.91L25.6458 6.35199Z" fill="white"/>
<path d="M94.4459 6.35199C94.8438 4.72567 97.1563 4.72567 97.5542 6.35199L101.116 20.91C101.258 21.4896 101.71 21.9421 102.29 22.0839L116.848 25.6458C118.474 26.0438 118.474 28.3562 116.848 28.7542L102.29 32.3161C101.71 32.4579 101.258 32.9104 101.116 33.49L97.5542 48.048C97.1563 49.6743 94.8438 49.6743 94.4459 48.048L90.884 33.49C90.7421 32.9104 90.2896 32.4579 89.7101 32.3161L75.152 28.7542C73.5257 28.3562 73.5257 26.0438 75.152 25.6458L89.7101 22.0839C90.2896 21.9421 90.7421 21.4896 90.884 20.91L94.4459 6.35199Z" fill="white"/>
<path d="M163.246 6.35199C163.644 4.72567 165.956 4.72567 166.354 6.35199L169.916 20.91C170.058 21.4896 170.51 21.9421 171.09 22.0839L185.648 25.6458C187.274 26.0438 187.274 28.3562 185.648 28.7542L171.09 32.3161C170.51 32.4579 170.058 32.9104 169.916 33.49L166.354 48.048C165.956 49.6743 163.644 49.6743 163.246 48.048L159.684 33.49C159.542 32.9104 159.09 32.4579 158.51 32.3161L143.952 28.7542C142.326 28.3562 142.326 26.0438 143.952 25.6458L158.51 22.0839C159.09 21.9421 159.542 21.4896 159.684 20.91L163.246 6.35199Z" fill="white"/>
</svg>
