<svg width="241" height="186" viewBox="0 0 241 186" fill="none" xmlns="http://www.w3.org/2000/svg">
<line x1="24.8804" y1="48.8978" x2="2.17178" y2="25.0697" stroke="white" stroke-width="6"/>
<line x1="52.9088" y1="35.7055" x2="47.3798" y2="0.464996" stroke="white" stroke-width="6"/>
<line x1="86.4898" y1="33.5021" x2="96.6794" y2="2.07473" stroke="white" stroke-width="6"/>
<path d="M66.8021 66.5775L79.135 69.8821L78.5139 72.2003L66.1809 68.8957L66.8021 66.5775ZM64.9975 72.1068L78.0491 75.604L77.4279 77.9222L64.3763 74.4251L64.9975 72.1068ZM62.5398 80.8155L75.7073 84.3437L75.0861 86.6619L61.9186 83.1337L62.5398 80.8155ZM66.5481 69.5656L78.0465 72.6465L77.4564 74.8489L65.958 71.7679L66.5481 69.5656ZM69.6139 65.542L72.5117 66.3184L70.2755 74.664L67.3777 73.8876L69.6139 65.542ZM74.2967 66.7967L77.2641 67.5918L75.0279 75.9374L72.0605 75.1423L74.2967 66.7967ZM69.7361 74.5443L72.6339 75.3208L70.4225 83.5737L67.5248 82.7972L69.7361 74.5443ZM73.3023 77.4628L76.3391 78.2765L73.9539 87.1785C73.7758 87.843 73.5577 88.3478 73.2997 88.6927C73.057 89.0418 72.6904 89.2666 72.1997 89.367C71.7089 89.4674 71.1792 89.4663 70.6104 89.3636C70.0416 89.2609 69.394 89.1122 68.6676 88.9175C68.7135 88.4992 68.7197 88.0122 68.6864 87.4566C68.6685 86.9052 68.6242 86.4213 68.5536 86.0048C68.905 86.1155 69.2795 86.2324 69.6771 86.3555C70.079 86.4632 70.3417 86.5336 70.4653 86.5667C70.6044 86.604 70.7034 86.6057 70.7622 86.5717C70.8405 86.5265 70.8963 86.442 70.9294 86.3184L73.3023 77.4628ZM65.1885 75.2887L74.6005 77.8106L73.9793 80.1288L67.5347 78.402L64.9755 87.9531L62.0081 87.158L65.1885 75.2887ZM65.8415 78.6937L73.793 80.8243L73.2526 82.8412L65.301 80.7106L65.8415 78.6937ZM55.9374 79.1209L58.6489 80.5928C58.0747 81.4991 57.3966 82.361 56.6143 83.1784C55.8476 83.9999 55.1011 84.653 54.375 85.1375C54.2309 84.9333 54.0333 84.6816 53.7822 84.3824C53.527 84.0987 53.264 83.8128 52.9933 83.525C52.7338 83.2567 52.5048 83.0297 52.3061 82.8439C52.992 82.4479 53.6569 81.9138 54.3008 81.2416C54.9447 80.5693 55.4903 79.8625 55.9374 79.1209ZM58.2899 80.8197L61.0268 80.4349C61.2671 81.1453 61.4831 81.9155 61.6748 82.7454C61.8707 83.5598 61.9967 84.2644 62.0526 84.8592L59.1502 85.3983C59.1414 84.9984 59.093 84.5299 59.005 83.9929C58.9283 83.4754 58.8228 82.9419 58.6884 82.3924C58.5737 81.8316 58.4408 81.3073 58.2899 80.8197ZM59.9433 71.1253L59.4899 72.8176L61.1127 73.2524L61.5661 71.5601L59.9433 71.1253ZM58.8377 75.2517L58.378 76.9672L60.0008 77.402L60.4604 75.6865L58.8377 75.2517ZM61.049 66.9988L60.6018 68.668L62.2245 69.1028L62.6718 67.4337L61.049 66.9988ZM58.9289 63.5983L66.324 65.5798L62.2368 80.8337L54.8416 78.8522L58.9289 63.5983ZM96.5783 76.3698L96.2739 77.5057L98.5921 78.1269L98.8965 76.991L96.5783 76.3698ZM91.5709 75.0281L91.2665 76.164L93.492 76.7603L93.7964 75.6244L91.5709 75.0281ZM86.5867 73.6926L86.2824 74.8285L88.4847 75.4186L88.789 74.2827L86.5867 73.6926ZM84.1387 70.4029L102.824 75.4095L101.202 81.4601L82.5175 76.4535L84.1387 70.4029ZM85.6292 83.2007L85.418 83.9889L94.7373 86.486L94.9485 85.6978L85.6292 83.2007ZM84.9024 85.9131L84.685 86.7244L94.0043 89.2215L94.2217 88.4101L84.9024 85.9131ZM86.356 80.4884L86.1448 81.2766L95.464 83.7737L95.6752 82.9855L86.356 80.4884ZM83.5242 77.5183L99.7749 81.8727L97.0045 92.2119L80.7538 87.8576L83.5242 77.5183ZM89.4363 91.5257L92.5788 90.554C93.3698 91.0641 94.1756 91.6113 94.9963 92.1956C95.8171 92.7799 96.6012 93.3462 97.3488 93.8944C98.0964 94.4425 98.7287 94.9267 99.2455 95.3468L95.0954 95.9988C94.7176 95.616 94.2244 95.1692 93.6159 94.6583C93.0187 94.1669 92.3639 93.6436 91.6513 93.0883C90.9346 92.5484 90.1963 92.0275 89.4363 91.5257ZM84.9349 88.481L87.6455 90.698C86.8804 90.9568 86.0113 91.1712 85.0382 91.3411C84.065 91.5111 83.0713 91.6341 82.0571 91.7102C81.0583 91.7904 80.1183 91.8367 79.2371 91.849C79.1137 91.5675 78.9389 91.2308 78.7126 90.8389C78.5018 90.4511 78.2755 90.0592 78.0338 89.6631C77.8034 89.2866 77.5894 88.9725 77.3918 88.7208C78.2946 88.8136 79.2077 88.8678 80.1311 88.8833C81.0545 88.8989 81.9301 88.8767 82.7578 88.8169C83.6051 88.7458 84.3308 88.6338 84.9349 88.481ZM108.975 85.5554L108.578 87.039L111.731 87.8838L112.128 86.4002L108.975 85.5554ZM106.79 82.2119L115.878 84.6469L114.107 91.2538L105.02 88.8188L106.79 82.2119ZM106.933 78.2497L117.596 81.1071L116.814 84.0281L106.15 81.1707L106.933 78.2497ZM117.003 84.5261L127.551 87.3524L126.75 90.3429L116.202 87.5166L117.003 84.5261ZM120.488 89.5098L123.363 90.2801L121.021 99.0198C120.975 99.1898 120.936 99.3366 120.903 99.4603C120.889 99.5726 120.884 99.654 120.887 99.7045C120.91 99.7437 120.932 99.7829 120.955 99.8221C120.982 99.8458 121.026 99.866 121.088 99.8825C121.134 99.8949 121.188 99.9094 121.25 99.926C121.312 99.9426 121.374 99.9591 121.436 99.9757C121.482 99.9881 121.53 99.9928 121.581 99.9898C121.631 99.9868 121.669 99.9719 121.692 99.9451C121.782 99.9194 121.904 99.7119 122.058 99.3225C122.147 99.1144 122.253 98.7785 122.378 98.3149C122.517 97.8554 122.668 97.3243 122.829 96.7215C123.048 97.0784 123.37 97.4545 123.794 97.8497C124.234 98.2491 124.644 98.5742 125.024 98.8251C124.855 99.3928 124.665 99.9466 124.454 100.486C124.243 101.026 124.054 101.423 123.887 101.676C123.533 102.194 123.101 102.509 122.59 102.621C122.36 102.675 122.108 102.69 121.833 102.666C121.558 102.642 121.312 102.601 121.095 102.543C120.941 102.502 120.779 102.458 120.609 102.413C120.439 102.367 120.269 102.322 120.099 102.276C119.929 102.231 119.774 102.189 119.635 102.152C119.341 102.073 119.047 101.936 118.751 101.741C118.471 101.55 118.25 101.325 118.087 101.066C117.929 100.792 117.845 100.455 117.836 100.055C117.828 99.655 117.937 99.03 118.165 98.18L120.488 89.5098ZM121.414 79.4714L124.567 80.3162C124.129 81.8884 123.661 83.4776 123.165 85.0838C122.684 86.6942 122.137 88.2704 121.525 89.8126C120.929 91.3588 120.228 92.8277 119.425 94.2192C118.626 95.5952 117.7 96.8545 116.649 97.9973C115.617 99.1288 114.415 100.09 113.043 100.882C112.895 100.445 112.659 99.9678 112.334 99.45C112.008 98.9322 111.663 98.4917 111.296 98.1285C112.553 97.4549 113.648 96.6137 114.581 95.6047C115.518 94.5804 116.329 93.4394 117.014 92.1818C117.699 90.9242 118.296 89.5933 118.805 88.1891C119.313 86.7849 119.774 85.3431 120.187 83.8636C120.6 82.3841 121.009 80.92 121.414 79.4714ZM108.464 88.9466L111.431 89.7417L109.618 96.5109C109.448 97.1446 109.24 97.6437 108.993 98.0082C108.762 98.3769 108.414 98.6234 107.95 98.7475C107.49 98.8562 106.999 98.8654 106.477 98.7751C105.965 98.7044 105.393 98.5842 104.759 98.4144C104.809 97.9806 104.812 97.4761 104.767 96.9009C104.738 96.3299 104.683 95.8263 104.601 95.3903C104.921 95.4927 105.244 95.5874 105.568 95.6743C105.908 95.7655 106.14 95.8276 106.264 95.8607C106.48 95.9187 106.615 95.8472 106.669 95.6463L108.464 88.9466ZM105.35 89.2552L107.884 90.5553C107.314 91.6945 106.668 92.8053 105.948 93.8877C105.231 94.9546 104.518 95.8236 103.808 96.4947C103.679 96.2946 103.503 96.0568 103.278 95.7814C103.07 95.5101 102.845 95.2346 102.605 94.955C102.381 94.6796 102.175 94.4588 101.988 94.2926C102.618 93.7327 103.22 92.9996 103.795 92.0933C104.388 91.1757 104.907 90.2297 105.35 89.2552ZM110.964 91.5793L113.538 91.1511C113.735 91.8996 113.893 92.7037 114.01 93.5634C114.128 94.4231 114.172 95.1554 114.142 95.7604L111.397 96.2673C111.447 95.651 111.43 94.9094 111.347 94.0425C111.269 93.1602 111.141 92.3391 110.964 91.5793ZM123.768 82.09L126.26 81.4158C126.578 82.081 126.884 82.8255 127.177 83.6493C127.489 84.4619 127.691 85.1619 127.782 85.7495L125.108 86.5486C125.06 86.1714 124.965 85.7234 124.822 85.2049C124.695 84.6904 124.539 84.1599 124.354 83.6135C124.169 83.067 123.974 82.5592 123.768 82.09ZM110.786 77.2201L114.043 77.3971C114.131 77.9342 114.207 78.5176 114.27 79.1475C114.333 79.7773 114.355 80.3132 114.336 80.7553L110.875 80.5982C110.921 80.1798 110.93 79.6521 110.902 79.0151C110.893 78.3668 110.855 77.7685 110.786 77.2201ZM139.627 101.073L145.933 102.763L145.361 104.896L139.056 103.206L139.627 101.073ZM138.826 104.064L145.132 105.754L144.492 108.141L138.186 106.452L138.826 104.064ZM144.384 89.9992L146.47 90.5582L144.737 97.026L142.651 96.467L144.384 89.9992ZM138.231 97.196L148.431 99.9292L145.885 109.434L142.964 108.651L144.84 101.65L140.366 100.451L138.465 107.545L135.66 106.793L138.231 97.196ZM141.705 85.9022L144.625 85.6661C144.819 86.1816 144.994 86.7337 145.151 87.3224C145.327 87.8998 145.441 88.4024 145.492 88.8302L142.429 89.2269C142.378 88.7991 142.28 88.2677 142.136 87.6327C141.991 86.9976 141.847 86.4208 141.705 85.9022ZM149.449 86.8592L152.261 88.6064C151.603 89.1426 150.956 89.6731 150.318 90.198C149.685 90.7074 149.115 91.1344 148.609 91.4791L146.613 90.025C146.92 89.743 147.246 89.4244 147.59 89.0692C147.937 88.6986 148.27 88.3238 148.587 87.9449C148.923 87.5547 149.21 87.1928 149.449 86.8592ZM141.552 90.8306L140.558 94.5397L147.49 96.397L148.483 92.6879L141.552 90.8306ZM139.602 87.7239L151.865 91.0099L149.579 99.541L137.316 96.255L139.602 87.7239ZM141.293 91.3327L143.139 91.3056C143.181 91.8302 143.21 92.4012 143.227 93.0186C143.263 93.6247 143.27 94.1235 143.248 94.5151L141.272 94.6565C141.318 94.2382 141.342 93.7146 141.345 93.0859C141.348 92.4572 141.331 91.8728 141.293 91.3327ZM146.802 92.287L148.572 93.2832C148.234 93.8053 147.913 94.3239 147.609 94.8388C147.309 95.3383 147.027 95.776 146.76 96.1519L145.192 95.2348C145.364 94.966 145.545 94.6586 145.737 94.3125C145.945 93.9706 146.137 93.6245 146.314 93.2743C146.51 92.9128 146.673 92.5837 146.802 92.287ZM129.159 99.0635L131.428 100.516C130.888 101.233 130.276 101.972 129.592 102.733C128.923 103.498 128.325 104.124 127.796 104.612C127.592 104.325 127.304 103.975 126.935 103.561C126.565 103.147 126.247 102.822 125.979 102.585C126.51 102.147 127.061 101.607 127.631 100.965C128.216 100.327 128.725 99.6927 129.159 99.0635ZM131.636 100.945L133.993 100.309C134.238 101.004 134.468 101.753 134.683 102.556C134.899 103.359 135.056 104.039 135.155 104.596L132.673 105.422C132.629 105.029 132.553 104.57 132.446 104.044C132.334 103.534 132.209 103.011 132.07 102.477C131.936 101.928 131.791 101.417 131.636 100.945ZM133.162 90.8932L132.708 92.5855L134.354 93.0265L134.808 91.3342L133.162 90.8932ZM132.056 95.0196L131.597 96.7351L133.242 97.1762L133.702 95.4607L132.056 95.0196ZM134.268 86.7668L133.82 88.4359L135.466 88.8769L135.913 87.2078L134.268 86.7668ZM132.402 83.4345L139.334 85.2918L135.247 100.546L128.315 98.6884L132.402 83.4345ZM58.9265 96.155L62.6357 97.1488L57.9148 114.767C57.6539 115.741 57.3315 116.45 56.9476 116.893C56.5791 117.341 56.064 117.626 55.4021 117.747C54.729 117.848 53.9494 117.821 53.0632 117.666C52.1883 117.531 51.1811 117.303 50.0416 116.981C50.0668 116.64 50.06 116.232 50.0214 115.758C49.9942 115.304 49.9437 114.843 49.87 114.376C49.816 113.898 49.7376 113.479 49.635 113.12C50.1058 113.28 50.5942 113.435 51.1 113.587C51.6059 113.739 52.0597 113.869 52.4616 113.977C52.8675 114.069 53.1555 114.138 53.3255 114.184C53.5883 114.254 53.7861 114.257 53.9192 114.194C54.0522 114.13 54.1498 113.982 54.2119 113.75L58.9265 96.155ZM62.8318 103.835L66.476 103.495C66.8002 104.758 67.0805 106.092 67.3169 107.497C67.5729 108.891 67.7635 110.25 67.8887 111.576C68.0138 112.902 68.0366 114.084 67.9571 115.123L63.8566 115.589C63.9742 114.594 63.9957 113.432 63.9211 112.103C63.8618 110.779 63.7357 109.395 63.5426 107.952C63.3496 106.509 63.1126 105.136 62.8318 103.835ZM51.449 99.7667L55.1233 101.447C54.5458 102.551 53.8956 103.71 53.1727 104.925C52.4694 106.128 51.7111 107.258 50.8976 108.315C50.1038 109.361 49.2819 110.234 48.4318 110.934C48.2074 110.659 47.9233 110.359 47.5795 110.035C47.2398 109.696 46.8882 109.369 46.5247 109.057C46.1767 108.748 45.8648 108.491 45.5888 108.284C46.3831 107.669 47.1493 106.88 47.8874 105.919C48.6296 104.941 49.3028 103.913 49.907 102.832C50.5309 101.74 51.0448 100.719 51.449 99.7667ZM72.6112 108.046L93.9157 113.755L93.0212 117.093L71.7167 111.384L72.6112 108.046ZM84.6035 105.296L93.2737 107.619L92.4103 110.842L83.7401 108.518L84.6035 105.296ZM82.868 102.222L86.4612 103.185L83.8896 112.782L80.2964 111.82L82.868 102.222ZM80.322 112.373L83.9152 113.336L80.7287 125.228L77.1354 124.266L80.322 112.373ZM81.5593 118.419L84.0292 116.249C84.5318 116.599 85.0935 117.006 85.7144 117.47C86.355 117.924 86.9991 118.394 87.6468 118.883C88.3141 119.36 88.935 119.824 89.5096 120.276C90.0996 120.733 90.5974 121.131 91.0031 121.472L88.2946 123.976C87.9395 123.632 87.4844 123.229 86.9294 122.765C86.3786 122.286 85.7891 121.797 85.161 121.298C84.5371 120.783 83.9111 120.275 83.283 119.776C82.6549 119.276 82.0803 118.824 81.5593 118.419ZM96.7674 115.537L118.373 121.327L117.386 125.013L95.7797 119.223L96.7674 115.537ZM133.795 116.812L144.552 119.694L143.856 122.291L133.099 119.409L133.795 116.812ZM132.652 120.059L142.69 122.749L142.075 125.044L132.037 122.354L132.652 120.059ZM128.768 125.652L142.353 129.292L141.595 132.121L128.01 128.481L128.768 125.652ZM132.497 116.464L135.766 117.34L132.691 128.815L129.422 127.94L132.497 116.464ZM139.283 131.476L141.175 134.244C140.333 134.482 139.518 134.711 138.73 134.931C137.946 135.135 137.241 135.294 136.614 135.408L135.306 133.243C135.704 133.118 136.143 132.962 136.624 132.776C137.108 132.575 137.587 132.364 138.061 132.143C138.538 131.906 138.946 131.684 139.283 131.476ZM135.522 129.375C135.694 130.465 136.002 131.541 136.446 132.604C136.89 133.668 137.457 134.673 138.148 135.62C138.838 136.567 139.641 137.403 140.556 138.129C140.271 138.267 139.938 138.46 139.557 138.706C139.192 138.956 138.832 139.215 138.479 139.485C138.125 139.755 137.823 140.013 137.575 140.262C136.635 139.38 135.829 138.369 135.157 137.229C134.486 136.088 133.946 134.858 133.537 133.539C133.144 132.225 132.862 130.866 132.692 129.462L135.522 129.375ZM132.058 123.204L141.887 125.838L141.266 128.156L131.436 125.523L132.058 123.204ZM126.657 137.609L127.041 134.88L128.402 134.251L133.46 134.289C133.333 134.702 133.212 135.183 133.098 135.733C132.989 136.266 132.919 136.712 132.89 137.068C131.736 137.107 130.791 137.143 130.053 137.178C129.315 137.212 128.726 137.245 128.287 137.276C127.844 137.323 127.5 137.371 127.254 137.422C127.02 137.491 126.821 137.554 126.657 137.609ZM125.269 125.634L128.353 126.46C128.353 126.46 128.324 126.536 128.267 126.686C128.23 126.825 128.184 126.995 128.131 127.196C128.081 127.381 128.03 127.542 127.977 127.677C127.444 129.356 126.973 130.745 126.562 131.844C126.167 132.948 125.805 133.803 125.477 134.411C125.168 135.007 124.86 135.414 124.554 135.63C124.18 135.911 123.828 136.081 123.497 136.142C123.162 136.218 122.784 136.24 122.361 136.21C122.02 136.185 121.6 136.114 121.101 135.997C120.603 135.879 120.077 135.739 119.525 135.574C119.635 135.04 119.68 134.44 119.66 133.772C119.656 133.108 119.567 132.513 119.393 131.986C119.844 132.156 120.269 132.303 120.667 132.426C121.08 132.554 121.402 132.648 121.634 132.71C121.804 132.756 121.955 132.78 122.087 132.782C122.238 132.773 122.393 132.723 122.549 132.633C122.726 132.531 122.924 132.253 123.145 131.799C123.371 131.329 123.641 130.631 123.955 129.705C124.285 128.783 124.682 127.58 125.145 126.098L125.269 125.634ZM122.877 119.353L125.798 120.136C125.554 121.048 125.284 121.994 124.988 122.975C124.708 123.96 124.42 124.91 124.125 125.825C123.85 126.728 123.588 127.519 123.34 128.198L120.373 127.403C120.645 126.697 120.926 125.895 121.217 124.996C121.511 124.081 121.807 123.133 122.103 122.152C122.399 121.171 122.657 120.238 122.877 119.353ZM122.487 124.889L125.849 125.79L125.079 128.664L121.369 127.67L122.487 124.889ZM123.434 119.502L126.563 120.341L127.11 118.301L123.169 117.245L123.964 114.277L130.965 116.153L128.822 124.151L122.633 122.493L123.434 119.502ZM126.657 137.609C126.662 137.346 126.624 137.021 126.545 136.635C126.478 136.269 126.387 135.897 126.273 135.519C126.175 135.145 126.065 134.842 125.945 134.611C126.273 134.5 126.618 134.294 126.98 133.994C127.358 133.697 127.621 133.271 127.77 132.715L129.093 127.777L132.246 128.622L130.395 135.53C130.395 135.53 130.276 135.573 130.037 135.658C129.803 135.728 129.513 135.824 129.165 135.946C128.814 136.084 128.458 136.237 128.098 136.405C127.734 136.589 127.418 136.778 127.151 136.972C126.88 137.18 126.715 137.393 126.657 137.609ZM153.995 135.915L155.263 128.403L156.155 124.518L160.698 125.735L159.528 129.546L156.87 136.686L153.995 135.915ZM153.706 142.745C153.01 142.559 152.498 142.181 152.17 141.613C151.858 141.049 151.792 140.427 151.975 139.747C152.157 139.067 152.53 138.571 153.094 138.258C153.658 137.945 154.28 137.88 154.96 138.062C155.64 138.245 156.147 138.612 156.479 139.165C156.811 139.718 156.886 140.334 156.704 141.014C156.522 141.694 156.146 142.198 155.578 142.526C155.01 142.854 154.386 142.927 153.706 142.745Z" fill="white"/>
<line x1="196.696" y1="120.866" x2="227.696" y2="100.493" stroke="white" stroke-width="6"/>
<line x1="197.981" y1="155.545" x2="235.096" y2="151.022" stroke="white" stroke-width="6"/>
</svg>
